<svg xmlns="http://www.w3.org/2000/svg" width="1200" height="112" viewBox="0 0 1200 112" role="img" aria-label="Technology stack">
<defs>
<clipPath id="c"><rect width="1200" height="112" rx="16"/></clipPath>
<linearGradient id="fl"><stop offset="0" stop-color="#0B1220"/><stop offset="1" stop-color="#0B1220" stop-opacity="0"/></linearGradient>
<linearGradient id="fr"><stop offset="0" stop-color="#0B1220" stop-opacity="0"/><stop offset="1" stop-color="#0B1220"/></linearGradient>
</defs>
<g clip-path="url(#c)"><rect width="1200" height="112" fill="#0B1220"/>
<g><animateTransform attributeName="transform" type="translate" from="0 0" to="-1747 0" dur="50s" repeatCount="indefinite"/>
<g transform="translate(0,35)"><rect width="87" height="42" rx="21" fill="#0F1B33" stroke="#1F3A66"/><circle cx="20" cy="21" r="4" fill="#58A6FF"/><text x="32" y="27" font-family="'Segoe UI','Helvetica Neue',Helvetica,Arial,sans-serif" font-size="15" fill="#C9D6EA">React</text></g><g transform="translate(101,35)"><rect width="104" height="42" rx="21" fill="#0F1B33" stroke="#1F3A66"/><circle cx="20" cy="21" r="4" fill="#58A6FF"/><text x="32" y="27" font-family="'Segoe UI','Helvetica Neue',Helvetica,Arial,sans-serif" font-size="15" fill="#C9D6EA">Next.js</text></g><g transform="translate(219,35)"><rect width="130" height="42" rx="21" fill="#0F1B33" stroke="#1F3A66"/><circle cx="20" cy="21" r="4" fill="#58A6FF"/><text x="32" y="27" font-family="'Segoe UI','Helvetica Neue',Helvetica,Arial,sans-serif" font-size="15" fill="#C9D6EA">TypeScript</text></g><g transform="translate(363,35)"><rect width="104" height="42" rx="21" fill="#0F1B33" stroke="#1F3A66"/><circle cx="20" cy="21" r="4" fill="#58A6FF"/><text x="32" y="27" font-family="'Segoe UI','Helvetica Neue',Helvetica,Arial,sans-serif" font-size="15" fill="#C9D6EA">Node.js</text></g><g transform="translate(481,35)"><rect width="104" height="42" rx="21" fill="#0F1B33" stroke="#1F3A66"/><circle cx="20" cy="21" r="4" fill="#58A6FF"/><text x="32" y="27" font-family="'Segoe UI','Helvetica Neue',Helvetica,Arial,sans-serif" font-size="15" fill="#C9D6EA">Express</text></g><g transform="translate(600,35)"><rect width="130" height="42" rx="21" fill="#0F1B33" stroke="#1F3A66"/><circle cx="20" cy="21" r="4" fill="#58A6FF"/><text x="32" y="27" font-family="'Segoe UI','Helvetica Neue',Helvetica,Arial,sans-serif" font-size="15" fill="#C9D6EA">PostgreSQL</text></g><g transform="translate(744,35)"><rect width="104" height="42" rx="21" fill="#0F1B33" stroke="#1F3A66"/><circle cx="20" cy="21" r="4" fill="#58A6FF"/><text x="32" y="27" font-family="'Segoe UI','Helvetica Neue',Helvetica,Arial,sans-serif" font-size="15" fill="#C9D6EA">MongoDB</text></g><g transform="translate(862,35)"><rect width="87" height="42" rx="21" fill="#0F1B33" stroke="#1F3A66"/><circle cx="20" cy="21" r="4" fill="#58A6FF"/><text x="32" y="27" font-family="'Segoe UI','Helvetica Neue',Helvetica,Arial,sans-serif" font-size="15" fill="#C9D6EA">Redis</text></g><g transform="translate(963,35)"><rect width="96" height="42" rx="21" fill="#0F1B33" stroke="#1F3A66"/><circle cx="20" cy="21" r="4" fill="#58A6FF"/><text x="32" y="27" font-family="'Segoe UI','Helvetica Neue',Helvetica,Arial,sans-serif" font-size="15" fill="#C9D6EA">Python</text></g><g transform="translate(1072,35)"><rect width="156" height="42" rx="21" fill="#0F1B33" stroke="#1F3A66"/><circle cx="20" cy="21" r="4" fill="#58A6FF"/><text x="32" y="27" font-family="'Segoe UI','Helvetica Neue',Helvetica,Arial,sans-serif" font-size="15" fill="#C9D6EA">Ruby on Rails</text></g><g transform="translate(1242,35)"><rect width="96" height="42" rx="21" fill="#0F1B33" stroke="#1F3A66"/><circle cx="20" cy="21" r="4" fill="#58A6FF"/><text x="32" y="27" font-family="'Segoe UI','Helvetica Neue',Helvetica,Arial,sans-serif" font-size="15" fill="#C9D6EA">Vue.js</text></g><g transform="translate(1352,35)"><rect width="96" height="42" rx="21" fill="#0F1B33" stroke="#1F3A66"/><circle cx="20" cy="21" r="4" fill="#58A6FF"/><text x="32" y="27" font-family="'Segoe UI','Helvetica Neue',Helvetica,Arial,sans-serif" font-size="15" fill="#C9D6EA">Docker</text></g><g transform="translate(1461,35)"><rect width="70" height="42" rx="21" fill="#0F1B33" stroke="#1F3A66"/><circle cx="20" cy="21" r="4" fill="#58A6FF"/><text x="32" y="27" font-family="'Segoe UI','Helvetica Neue',Helvetica,Arial,sans-serif" font-size="15" fill="#C9D6EA">AWS</text></g><g transform="translate(1545,35)"><rect width="87" height="42" rx="21" fill="#0F1B33" stroke="#1F3A66"/><circle cx="20" cy="21" r="4" fill="#58A6FF"/><text x="32" y="27" font-family="'Segoe UI','Helvetica Neue',Helvetica,Arial,sans-serif" font-size="15" fill="#C9D6EA">Linux</text></g><g transform="translate(1646,35)"><rect width="87" height="42" rx="21" fill="#0F1B33" stroke="#1F3A66"/><circle cx="20" cy="21" r="4" fill="#58A6FF"/><text x="32" y="27" font-family="'Segoe UI','Helvetica Neue',Helvetica,Arial,sans-serif" font-size="15" fill="#C9D6EA">CI/CD</text></g><g transform="translate(1747,0)"><g transform="translate(0,35)"><rect width="87" height="42" rx="21" fill="#0F1B33" stroke="#1F3A66"/><circle cx="20" cy="21" r="4" fill="#58A6FF"/><text x="32" y="27" font-family="'Segoe UI','Helvetica Neue',Helvetica,Arial,sans-serif" font-size="15" fill="#C9D6EA">React</text></g><g transform="translate(101,35)"><rect width="104" height="42" rx="21" fill="#0F1B33" stroke="#1F3A66"/><circle cx="20" cy="21" r="4" fill="#58A6FF"/><text x="32" y="27" font-family="'Segoe UI','Helvetica Neue',Helvetica,Arial,sans-serif" font-size="15" fill="#C9D6EA">Next.js</text></g><g transform="translate(219,35)"><rect width="130" height="42" rx="21" fill="#0F1B33" stroke="#1F3A66"/><circle cx="20" cy="21" r="4" fill="#58A6FF"/><text x="32" y="27" font-family="'Segoe UI','Helvetica Neue',Helvetica,Arial,sans-serif" font-size="15" fill="#C9D6EA">TypeScript</text></g><g transform="translate(363,35)"><rect width="104" height="42" rx="21" fill="#0F1B33" stroke="#1F3A66"/><circle cx="20" cy="21" r="4" fill="#58A6FF"/><text x="32" y="27" font-family="'Segoe UI','Helvetica Neue',Helvetica,Arial,sans-serif" font-size="15" fill="#C9D6EA">Node.js</text></g><g transform="translate(481,35)"><rect width="104" height="42" rx="21" fill="#0F1B33" stroke="#1F3A66"/><circle cx="20" cy="21" r="4" fill="#58A6FF"/><text x="32" y="27" font-family="'Segoe UI','Helvetica Neue',Helvetica,Arial,sans-serif" font-size="15" fill="#C9D6EA">Express</text></g><g transform="translate(600,35)"><rect width="130" height="42" rx="21" fill="#0F1B33" stroke="#1F3A66"/><circle cx="20" cy="21" r="4" fill="#58A6FF"/><text x="32" y="27" font-family="'Segoe UI','Helvetica Neue',Helvetica,Arial,sans-serif" font-size="15" fill="#C9D6EA">PostgreSQL</text></g><g transform="translate(744,35)"><rect width="104" height="42" rx="21" fill="#0F1B33" stroke="#1F3A66"/><circle cx="20" cy="21" r="4" fill="#58A6FF"/><text x="32" y="27" font-family="'Segoe UI','Helvetica Neue',Helvetica,Arial,sans-serif" font-size="15" fill="#C9D6EA">MongoDB</text></g><g transform="translate(862,35)"><rect width="87" height="42" rx="21" fill="#0F1B33" stroke="#1F3A66"/><circle cx="20" cy="21" r="4" fill="#58A6FF"/><text x="32" y="27" font-family="'Segoe UI','Helvetica Neue',Helvetica,Arial,sans-serif" font-size="15" fill="#C9D6EA">Redis</text></g><g transform="translate(963,35)"><rect width="96" height="42" rx="21" fill="#0F1B33" stroke="#1F3A66"/><circle cx="20" cy="21" r="4" fill="#58A6FF"/><text x="32" y="27" font-family="'Segoe UI','Helvetica Neue',Helvetica,Arial,sans-serif" font-size="15" fill="#C9D6EA">Python</text></g><g transform="translate(1072,35)"><rect width="156" height="42" rx="21" fill="#0F1B33" stroke="#1F3A66"/><circle cx="20" cy="21" r="4" fill="#58A6FF"/><text x="32" y="27" font-family="'Segoe UI','Helvetica Neue',Helvetica,Arial,sans-serif" font-size="15" fill="#C9D6EA">Ruby on Rails</text></g><g transform="translate(1242,35)"><rect width="96" height="42" rx="21" fill="#0F1B33" stroke="#1F3A66"/><circle cx="20" cy="21" r="4" fill="#58A6FF"/><text x="32" y="27" font-family="'Segoe UI','Helvetica Neue',Helvetica,Arial,sans-serif" font-size="15" fill="#C9D6EA">Vue.js</text></g><g transform="translate(1352,35)"><rect width="96" height="42" rx="21" fill="#0F1B33" stroke="#1F3A66"/><circle cx="20" cy="21" r="4" fill="#58A6FF"/><text x="32" y="27" font-family="'Segoe UI','Helvetica Neue',Helvetica,Arial,sans-serif" font-size="15" fill="#C9D6EA">Docker</text></g><g transform="translate(1461,35)"><rect width="70" height="42" rx="21" fill="#0F1B33" stroke="#1F3A66"/><circle cx="20" cy="21" r="4" fill="#58A6FF"/><text x="32" y="27" font-family="'Segoe UI','Helvetica Neue',Helvetica,Arial,sans-serif" font-size="15" fill="#C9D6EA">AWS</text></g><g transform="translate(1545,35)"><rect width="87" height="42" rx="21" fill="#0F1B33" stroke="#1F3A66"/><circle cx="20" cy="21" r="4" fill="#58A6FF"/><text x="32" y="27" font-family="'Segoe UI','Helvetica Neue',Helvetica,Arial,sans-serif" font-size="15" fill="#C9D6EA">Linux</text></g><g transform="translate(1646,35)"><rect width="87" height="42" rx="21" fill="#0F1B33" stroke="#1F3A66"/><circle cx="20" cy="21" r="4" fill="#58A6FF"/><text x="32" y="27" font-family="'Segoe UI','Helvetica Neue',Helvetica,Arial,sans-serif" font-size="15" fill="#C9D6EA">CI/CD</text></g></g><g transform="translate(3494,0)"><g transform="translate(0,35)"><rect width="87" height="42" rx="21" fill="#0F1B33" stroke="#1F3A66"/><circle cx="20" cy="21" r="4" fill="#58A6FF"/><text x="32" y="27" font-family="'Segoe UI','Helvetica Neue',Helvetica,Arial,sans-serif" font-size="15" fill="#C9D6EA">React</text></g><g transform="translate(101,35)"><rect width="104" height="42" rx="21" fill="#0F1B33" stroke="#1F3A66"/><circle cx="20" cy="21" r="4" fill="#58A6FF"/><text x="32" y="27" font-family="'Segoe UI','Helvetica Neue',Helvetica,Arial,sans-serif" font-size="15" fill="#C9D6EA">Next.js</text></g><g transform="translate(219,35)"><rect width="130" height="42" rx="21" fill="#0F1B33" stroke="#1F3A66"/><circle cx="20" cy="21" r="4" fill="#58A6FF"/><text x="32" y="27" font-family="'Segoe UI','Helvetica Neue',Helvetica,Arial,sans-serif" font-size="15" fill="#C9D6EA">TypeScript</text></g><g transform="translate(363,35)"><rect width="104" height="42" rx="21" fill="#0F1B33" stroke="#1F3A66"/><circle cx="20" cy="21" r="4" fill="#58A6FF"/><text x="32" y="27" font-family="'Segoe UI','Helvetica Neue',Helvetica,Arial,sans-serif" font-size="15" fill="#C9D6EA">Node.js</text></g><g transform="translate(481,35)"><rect width="104" height="42" rx="21" fill="#0F1B33" stroke="#1F3A66"/><circle cx="20" cy="21" r="4" fill="#58A6FF"/><text x="32" y="27" font-family="'Segoe UI','Helvetica Neue',Helvetica,Arial,sans-serif" font-size="15" fill="#C9D6EA">Express</text></g><g transform="translate(600,35)"><rect width="130" height="42" rx="21" fill="#0F1B33" stroke="#1F3A66"/><circle cx="20" cy="21" r="4" fill="#58A6FF"/><text x="32" y="27" font-family="'Segoe UI','Helvetica Neue',Helvetica,Arial,sans-serif" font-size="15" fill="#C9D6EA">PostgreSQL</text></g><g transform="translate(744,35)"><rect width="104" height="42" rx="21" fill="#0F1B33" stroke="#1F3A66"/><circle cx="20" cy="21" r="4" fill="#58A6FF"/><text x="32" y="27" font-family="'Segoe UI','Helvetica Neue',Helvetica,Arial,sans-serif" font-size="15" fill="#C9D6EA">MongoDB</text></g><g transform="translate(862,35)"><rect width="87" height="42" rx="21" fill="#0F1B33" stroke="#1F3A66"/><circle cx="20" cy="21" r="4" fill="#58A6FF"/><text x="32" y="27" font-family="'Segoe UI','Helvetica Neue',Helvetica,Arial,sans-serif" font-size="15" fill="#C9D6EA">Redis</text></g><g transform="translate(963,35)"><rect width="96" height="42" rx="21" fill="#0F1B33" stroke="#1F3A66"/><circle cx="20" cy="21" r="4" fill="#58A6FF"/><text x="32" y="27" font-family="'Segoe UI','Helvetica Neue',Helvetica,Arial,sans-serif" font-size="15" fill="#C9D6EA">Python</text></g><g transform="translate(1072,35)"><rect width="156" height="42" rx="21" fill="#0F1B33" stroke="#1F3A66"/><circle cx="20" cy="21" r="4" fill="#58A6FF"/><text x="32" y="27" font-family="'Segoe UI','Helvetica Neue',Helvetica,Arial,sans-serif" font-size="15" fill="#C9D6EA">Ruby on Rails</text></g><g transform="translate(1242,35)"><rect width="96" height="42" rx="21" fill="#0F1B33" stroke="#1F3A66"/><circle cx="20" cy="21" r="4" fill="#58A6FF"/><text x="32" y="27" font-family="'Segoe UI','Helvetica Neue',Helvetica,Arial,sans-serif" font-size="15" fill="#C9D6EA">Vue.js</text></g><g transform="translate(1352,35)"><rect width="96" height="42" rx="21" fill="#0F1B33" stroke="#1F3A66"/><circle cx="20" cy="21" r="4" fill="#58A6FF"/><text x="32" y="27" font-family="'Segoe UI','Helvetica Neue',Helvetica,Arial,sans-serif" font-size="15" fill="#C9D6EA">Docker</text></g><g transform="translate(1461,35)"><rect width="70" height="42" rx="21" fill="#0F1B33" stroke="#1F3A66"/><circle cx="20" cy="21" r="4" fill="#58A6FF"/><text x="32" y="27" font-family="'Segoe UI','Helvetica Neue',Helvetica,Arial,sans-serif" font-size="15" fill="#C9D6EA">AWS</text></g><g transform="translate(1545,35)"><rect width="87" height="42" rx="21" fill="#0F1B33" stroke="#1F3A66"/><circle cx="20" cy="21" r="4" fill="#58A6FF"/><text x="32" y="27" font-family="'Segoe UI','Helvetica Neue',Helvetica,Arial,sans-serif" font-size="15" fill="#C9D6EA">Linux</text></g><g transform="translate(1646,35)"><rect width="87" height="42" rx="21" fill="#0F1B33" stroke="#1F3A66"/><circle cx="20" cy="21" r="4" fill="#58A6FF"/><text x="32" y="27" font-family="'Segoe UI','Helvetica Neue',Helvetica,Arial,sans-serif" font-size="15" fill="#C9D6EA">CI/CD</text></g></g></g>
<rect width="140" height="112" fill="url(#fl)"/><rect x="1060" width="140" height="112" fill="url(#fr)"/></g>
<rect x="0.5" y="0.5" width="1199" height="111" rx="16" fill="none" stroke="#16243F"/>
</svg>